# Blender 4.4.3
# www.blender.org
mtllib wall_visual.mtl
o aws_robomaker_warehouse_WallB_01_collision
v 26.213387 19.248367 0.000001
v 26.213387 19.495461 0.000001
v -26.213371 19.248367 0.000001
v -26.213371 19.495461 0.000001
v 26.213387 19.248367 2.705959
v 26.213387 19.495461 2.705959
v -26.213371 19.248367 2.705959
v -26.213371 19.495461 2.705959
v 25.692863 19.248367 0.000001
v 25.692863 19.495461 0.000001
v 25.692863 19.495461 2.705959
v 25.692863 19.248367 2.705959
v 26.213387 -19.495461 -0.000001
v 26.213387 -19.495461 2.705957
v 25.692863 -19.495461 -0.000001
v 25.692863 -19.495461 2.705957
v 25.692863 -19.248367 2.705957
v 26.213387 -19.248367 2.705957
v 26.213387 -19.248367 -0.000001
v 25.692863 -19.248367 -0.000001
v -26.213371 -19.495461 -0.000001
v -26.213371 -19.495461 2.705957
v -26.213371 -19.248367 2.705957
v -26.213371 -19.248367 -0.000001
v -25.730064 -19.248367 2.705957
v -25.730064 -19.495461 2.705957
v -25.730064 -19.495461 -0.000001
v -25.730064 -19.248367 -0.000001
v -25.730064 19.248367 2.705959
v -25.730068 19.495461 2.705959
v -25.730064 19.495461 0.000001
v -25.730068 19.248367 0.000001
vn -0.0000 -0.0000 -1.0000
vn -0.0000 -0.0000 1.0000
vn 1.0000 -0.0000 -0.0000
vn -0.0000 1.0000 -0.0000
vn -1.0000 -0.0000 -0.0000
vn -0.0000 -1.0000 -0.0000
vt 1.000000 0.000000
vt 1.000000 0.009929
vt 0.000000 0.000000
vt 0.000000 0.009929
vt 0.000000 1.000000
vt 1.000000 1.000000
vt 0.009929 0.000000
vt 0.009929 1.000000
vt 0.000000 0.989764
vt 1.000000 0.989764
vt 0.989764 0.000000
vt 0.989764 1.000000
vt 0.990071 1.000000
vt 0.990071 0.000000
vt 0.010236 1.000000
vt 0.010236 0.000000
s 0
f 1/1/1 9/2/1 2/3/1
f 9/2/1 10/4/1 2/3/1
f 11/2/2 12/4/2 6/1/2
f 6/1/2 12/4/2 5/3/2
f 5/5/3 1/3/3 6/6/3
f 6/6/3 1/3/3 2/1/3
f 6/5/4 10/7/4 11/8/4
f 10/7/4 6/5/4 2/3/4
f 8/5/5 4/3/5 7/6/5
f 7/6/5 4/3/5 3/1/5
f 31/9/1 9/2/1 32/10/1
f 9/2/1 31/9/1 10/4/1
f 29/9/2 11/2/2 30/10/2
f 11/2/2 29/9/2 12/4/2
f 11/8/4 31/11/4 30/12/4
f 31/11/4 11/8/4 10/7/4
f 20/2/1 1/1/1 19/1/1
f 1/1/1 20/2/1 9/2/1
f 5/5/3 18/5/3 19/3/3
f 5/5/3 19/3/3 1/3/3
f 18/3/2 5/3/2 12/4/2
f 12/4/2 17/4/2 18/3/2
f 17/13/5 12/13/5 9/14/5
f 17/13/5 9/14/5 20/14/5
f 16/4/6 15/14/6 14/5/6
f 14/5/6 15/14/6 13/1/6
f 15/2/1 20/2/1 13/1/1
f 13/1/1 20/2/1 19/1/1
f 19/3/3 18/5/3 14/5/3
f 14/5/3 13/3/3 19/3/3
f 18/3/2 17/4/2 16/4/2
f 18/3/2 16/4/2 14/3/2
f 27/14/6 16/4/6 26/4/6
f 16/4/6 27/14/6 15/14/6
f 26/4/2 17/4/2 25/4/2
f 17/4/2 26/4/2 16/4/2
f 15/2/1 27/2/1 28/2/1
f 15/2/1 28/2/1 20/2/1
f 25/13/4 17/13/4 20/14/4
f 25/13/4 20/14/4 28/14/4
f 21/2/5 22/4/5 23/4/5
f 23/4/5 24/14/5 21/2/5
f 27/14/6 26/4/6 22/4/6
f 22/4/6 21/14/6 27/14/6
f 25/4/2 23/4/2 26/4/2
f 23/4/2 22/4/2 26/4/2
f 27/2/1 21/2/1 28/2/1
f 21/2/1 24/2/1 28/2/1
f 29/15/6 9/14/6 12/13/6
f 9/14/6 29/15/6 32/16/6
f 32/10/1 4/5/1 31/9/1
f 4/5/1 32/10/1 3/6/1
f 30/10/2 7/5/2 29/9/2
f 7/5/2 30/10/2 8/6/2
f 30/12/4 4/1/4 8/6/4
f 4/1/4 30/12/4 31/11/4
f 7/5/2 23/4/2 29/9/2
f 29/9/2 23/4/2 25/4/2
f 3/1/5 24/14/5 7/6/5
f 23/4/5 7/6/5 24/14/5
f 24/2/1 32/10/1 28/2/1
f 32/10/1 24/2/1 3/6/1
f 25/13/3 32/16/3 29/15/3
f 32/16/3 25/13/3 28/14/3
